<svg id="Layer_2" data-name="Layer 2" xmlns="http://www.w3.org/2000/svg" viewBox="0 0 117 60"><title>Artboard 1</title><path d="M7,42.51c-.53,5.06-.32,7.79,3.14,7.79v.43H1V50.3c3.52,0,4.34-2.83,4.92-8.09L8.71,16.29c.55-5.16.57-7.94-2.06-7.94V7.92H18.53v.43a2.39,2.39,0,0,0-2.22,2.12c-.23,1.44.69,3,1.45,4.2l8.15,12.39,8.71-11.65A6.8,6.8,0,0,0,36,10.94a3.25,3.25,0,0,0-2.56-2.59V7.92H47.21v.43c-2.63,0-2.61,2.78-2.06,7.94L48,42.21c.58,5.26,1.19,8.09,3.85,8.09v.43H38.06V50.3c2.6,0,2.6-2.72,2.08-7.79L37,14.18,18.69,38.66l-.33-.25c2.61-3.6,1.93-5.6-.5-9.4l-8-12.22Z"/><path d="M65.71,50.73H52.08V50.3c2.68,0,2.89-2.86,2.89-8.17V16.52c0-5.31-.21-8.17-2.89-8.17V7.92H65.71v.43c-2.68,0-2.88,2.86-2.88,8.17V42.13c0,5.31.2,8.17,2.88,8.17Z"/><path d="M72.2,42.51c-.53,5.06-.32,7.79,3.14,7.79v.43H66.13V50.3c3.52,0,4.34-2.83,4.92-8.09l2.83-25.92c.55-5.16.58-7.94-2.06-7.94V7.92H83.7v.43a2.39,2.39,0,0,0-2.22,2.12c-.23,1.44.69,3,1.45,4.2l8.15,12.39,8.71-11.65a6.8,6.8,0,0,0,1.38-4.47,3.25,3.25,0,0,0-2.56-2.59V7.92h13.77v.43c-2.63,0-2.61,2.78-2.06,7.94l2.83,25.92c.58,5.26,1.18,8.09,3.85,8.09v.43H103.23V50.3c2.6,0,2.6-2.72,2.07-7.79l-3.13-28.33L83.86,38.66l-.33-.25c2.61-3.6,1.93-5.6-.5-9.4L75,16.79Z"/></svg>