<?xml version="1.0" standalone="no"?>
<!DOCTYPE svg PUBLIC "-//W3C//DTD SVG 20010904//EN"
 "http://www.w3.org/TR/2001/REC-SVG-20010904/DTD/svg10.dtd">
<svg version="1.0" xmlns="http://www.w3.org/2000/svg"
 width="423.000000pt" height="423.000000pt" viewBox="0 0 423.000000 423.000000"
 preserveAspectRatio="xMidYMid meet">

<g transform="translate(0.000000,423.000000) scale(0.100000,-0.100000)"
fill="#000000" stroke="none">
<path d="M1034 3480 c-118 -16 -185 -68 -230 -175 -8 -21 -50 -59 -126 -115
-150 -112 -346 -308 -435 -435 -83 -118 -110 -170 -150 -285 -49 -140 -58
-205 -58 -430 1 -238 7 -271 88 -444 68 -148 123 -230 206 -308 122 -115 186
-152 408 -230 l148 -53 235 0 235 0 80 44 c44 24 109 66 144 93 35 26 68 48
72 48 5 0 24 -30 43 -68 45 -88 60 -107 197 -250 144 -151 190 -177 313 -174
55 1 88 7 110 20 44 25 110 130 154 244 27 71 43 100 60 107 31 14 89 138 104
221 l12 65 12 -40 c7 -22 13 -49 13 -61 1 -22 60 -174 93 -239 24 -46 118
-147 163 -175 81 -50 192 -44 267 13 48 37 121 164 139 242 6 28 26 68 44 90
18 22 41 55 52 73 l20 32 33 -76 c19 -42 43 -82 55 -90 25 -16 52 -10 59 14
12 40 26 194 26 285 l0 99 28 -8 c15 -5 56 -9 92 -9 53 1 77 7 129 33 51 25
67 29 83 21 27 -14 44 2 29 28 -8 17 -2 28 44 73 127 125 179 363 123 558 -19
66 -30 85 -74 129 -56 57 -102 71 -192 60 -77 -9 -215 -65 -267 -108 -26 -21
-51 -39 -56 -39 -5 0 -9 21 -9 48 0 145 -47 337 -100 410 -93 129 -257 93
-469 -104 -123 -114 -209 -282 -270 -529 -22 -88 -42 -179 -46 -203 -4 -24
-11 -42 -15 -40 -18 7 -155 133 -308 283 -170 167 -186 180 -202 170 -27 -17
-3 -202 46 -352 l25 -77 -15 -116 c-8 -63 -18 -180 -21 -260 -6 -135 -5 -152
20 -245 35 -135 62 -189 97 -193 37 -4 47 19 58 139 4 55 11 103 14 107 3 3 6
-1 6 -9 0 -8 21 -56 46 -108 l47 -93 -18 -57 c-24 -78 -78 -193 -110 -235 -14
-19 -40 -39 -57 -45 -49 -17 -126 -13 -187 10 -48 19 -73 40 -180 153 -97 103
-136 152 -173 221 l-48 89 33 35 c118 127 176 291 246 701 46 267 47 379 6
723 -16 139 -25 163 -156 398 -63 115 -69 123 -176 232 -92 93 -131 117 -248
148 -81 22 -270 32 -361 19z m329 -56 c125 -29 163 -51 267 -160 86 -90 104
-117 189 -273 l94 -173 18 -137 c41 -303 37 -484 -21 -796 -43 -235 -75 -350
-121 -442 -38 -76 -101 -163 -118 -163 -4 0 -19 24 -34 53 -51 104 -85 458
-58 617 8 46 11 44 31 -22 14 -45 33 -64 48 -46 8 10 3 36 -16 93 -24 70 -30
80 -53 83 -36 4 -47 -25 -60 -166 -18 -190 16 -460 71 -581 17 -35 30 -66 30
-70 0 -12 -167 -130 -233 -164 l-62 -32 -215 0 -215 1 -148 52 c-176 62 -230
88 -320 154 -110 82 -178 166 -246 304 -33 66 -69 148 -80 180 -55 167 -48
511 14 699 31 93 92 210 156 300 76 107 259 294 383 389 80 62 91 68 109 56
17 -10 23 -10 34 6 7 10 13 26 13 35 0 37 232 149 309 149 38 0 68 -25 96 -80
28 -55 42 -67 58 -51 8 8 3 28 -21 77 -37 74 -68 94 -148 94 -44 0 -172 -44
-221 -76 -26 -17 -27 -15 -11 20 14 32 68 65 123 76 74 15 281 11 358 -6z
m2031 -708 c60 -61 100 -199 112 -391 l7 -111 -36 -27 c-20 -15 -39 -27 -44
-27 -13 0 -127 166 -143 210 -20 52 -36 68 -52 52 -9 -9 -7 -25 5 -69 23 -82
26 -113 28 -240 l1 -111 -135 -154 c-74 -84 -150 -168 -169 -185 l-34 -33 -49
36 c-28 19 -56 39 -64 43 -8 5 -23 60 -37 139 -13 73 -28 141 -34 152 -16 29
33 216 88 330 73 155 138 238 249 317 110 78 162 103 220 103 46 0 56 -4 87
-34z m626 -376 c45 -32 67 -70 91 -156 18 -66 20 -93 15 -167 -11 -143 -61
-261 -145 -341 -39 -38 -42 -39 -68 -25 -35 17 -278 259 -320 317 -29 40 -31
48 -32 137 l-1 94 61 50 c58 46 179 100 259 115 45 8 111 -3 140 -24z m-634
-204 c4 -13 -3 -28 -25 -49 -17 -17 -32 -29 -34 -26 -3 2 -7 42 -9 88 l-5 83
33 -38 c18 -22 36 -47 40 -58z m-1133 9 c62 -68 66 -75 44 -75 -18 0 -29 -9
-41 -34 -9 -19 -16 -41 -16 -50 0 -41 -20 -9 -38 62 -23 89 -35 172 -24 172 4
0 38 -34 75 -75z m1267 -42 l0 -46 -25 23 c-28 26 -31 40 -13 58 25 25 38 13
38 -35z m-40 -75 l44 -51 -12 -166 c-10 -148 -39 -332 -55 -347 -3 -4 -9 4
-12 17 -24 105 -37 189 -42 274 -6 104 -16 133 -38 115 -9 -7 -15 -68 -20
-203 -6 -173 -28 -437 -41 -478 -12 -42 -131 -53 -208 -19 -65 27 -120 90
-171 195 -62 128 -61 125 -17 168 39 38 39 38 85 26 28 -7 66 -8 94 -4 98 14
187 149 219 330 16 96 19 102 63 148 25 26 50 47 57 47 6 0 30 -23 54 -52z
m-1006 -90 c56 -51 118 -107 139 -125 43 -37 49 -76 16 -94 -21 -11 -22 -16
-16 -123 3 -61 3 -131 -1 -156 -7 -43 -9 -45 -37 -42 -38 4 -41 10 -48 95 -9
121 -80 372 -138 485 -15 28 -25 52 -22 52 3 0 51 -42 107 -92z m-152 65 c25
-29 49 -81 84 -183 33 -99 84 -310 84 -350 0 -23 0 -23 -21 -4 -54 48 -146
211 -189 335 -22 65 -22 67 -6 143 10 42 21 76 25 76 4 0 15 -8 23 -17z m928
-172 c-21 -86 -78 -186 -123 -215 -35 -23 -137 -26 -137 -4 0 6 30 44 68 83
37 39 98 106 136 149 37 42 70 75 72 73 2 -1 -5 -40 -16 -86z m448 -40 c70
-70 142 -140 160 -154 18 -15 31 -31 27 -37 -12 -19 -101 -52 -145 -52 -90 -1
-112 23 -147 157 -8 33 -19 64 -24 70 -9 9 -13 145 -4 145 3 0 63 -58 133
-129z m-948 -3 c0 -10 -4 -18 -10 -18 -5 0 -10 15 -10 33 0 24 3 28 10 17 5
-8 10 -23 10 -32z m-398 -242 c12 -21 47 -67 79 -100 56 -61 57 -62 64 -138 7
-79 1 -148 -14 -148 -13 0 -66 127 -96 230 -15 52 -31 106 -34 120 -4 14 -14
25 -22 25 -11 0 -15 -36 -20 -195 -4 -107 -7 -203 -8 -212 -3 -39 -22 -14 -47
65 -24 70 -28 103 -32 226 -2 80 1 187 8 243 l12 100 44 -89 c24 -48 54 -106
66 -127z m400 157 c9 -10 27 -57 40 -106 l25 -87 -41 -34 c-23 -18 -51 -38
-62 -44 -20 -10 -22 -8 -28 20 -13 66 -1 171 29 256 6 17 19 15 37 -5z m815
-100 c9 -66 8 -313 -2 -379 -3 -24 -10 -44 -15 -44 -4 0 -23 35 -40 78 -31 72
-32 80 -22 127 6 28 22 101 34 162 13 62 26 113 30 113 4 0 10 -26 15 -57z
m-671 -4 c6 -10 -23 -49 -37 -49 -9 0 -29 56 -29 82 0 19 1 19 30 -2 16 -11
32 -26 36 -31z m514 -165 l18 -78 -24 -47 c-32 -65 -49 -74 -41 -23 4 21 10
83 13 137 4 53 9 95 12 93 2 -3 12 -40 22 -82z m-541 -55 c78 -187 188 -273
344 -273 89 1 88 4 35 -101 -46 -90 -67 -115 -112 -136 -84 -38 -162 -20 -244
56 -83 77 -153 217 -187 374 -13 59 -13 67 1 76 9 6 39 26 68 47 28 20 53 37
56 37 3 0 20 -36 39 -80z m-275 -58 c-14 -66 -34 -128 -46 -144 -11 -15 -13
-4 -10 70 3 109 4 112 36 106 22 -5 25 -9 20 -32z"/>
</g>
</svg>
